PathFileType	4	(X/Y/Z)	 New Session 105.trc
DataRate	CameraRate	NumFrames	NumMarkers	Units	OrigDataRate	OrigDataStartFrame	OrigNumFrames
100	100	10	14	m	100	445	711
Frame#	Time	C7			T8			IJ			PX			AA			AC			AI			TS			SC			GH			LE			ME			US			RS			
		X1	Y1	Z1	X2	Y2	Z2	X3	Y3	Z3	X4	Y4	Z4	X5	Y5	Z5	X6	Y6	Z6	X7	Y7	Z7	X8	Y8	Z8	X9	Y9	Z9	X10	Y10	Z10	X11	Y11	Z11	X12	Y12	Z12	X13	Y13	Z13	X14	Y14	Z14	
445	4.4500	0.002675	0.100357	0.163203	0.021927	-0.116602	0.226037	0.004682	0.000860	-0.005394	0.019510	-0.141220	-0.071391	0.179073	0.049790	0.181322	0.128436	0.093274	0.110942	0.079719	0.025467	0.212872	0.101780	-0.090533	0.223455	0.027811	0.013151	0.000167	0.172451	0.084068	0.154928	0.430110	0.101330	0.122448	0.459061	0.023995	0.076271	0.556110	0.225906	-0.102750	0.479711	0.243142	-0.108375	
446	4.4600	0.002826	0.100453	0.163290	0.022089	-0.116496	0.226173	0.004820	0.000843	-0.005266	0.019597	-0.141271	-0.071264	0.179332	0.050031	0.181165	0.128593	0.093251	0.110880	0.079881	0.025581	0.212912	0.101978	-0.090399	0.223577	0.027853	0.013101	0.000263	0.172615	0.084213	0.154609	0.429907	0.102703	0.120050	0.459102	0.024469	0.075678	0.554515	0.221921	-0.108720	0.477863	0.238336	-0.114825	
447	4.4700	0.002958	0.100530	0.163366	0.022228	-0.116394	0.226313	0.004993	0.000825	-0.005129	0.019679	-0.141330	-0.071138	0.179572	0.050283	0.181011	0.128733	0.093224	0.110827	0.080027	0.025688	0.212942	0.102169	-0.090272	0.223693	0.027895	0.013047	0.000352	0.172764	0.084343	0.154303	0.429694	0.104041	0.117627	0.459178	0.024938	0.075133	0.552931	0.217645	-0.114647	0.476026	0.233260	-0.121174	
448	4.4800	0.003072	0.100593	0.163423	0.022345	-0.116296	0.226461	0.005180	0.000798	-0.004991	0.019753	-0.141398	-0.071014	0.179807	0.050554	0.180874	0.128867	0.093156	0.110726	0.080167	0.025797	0.212963	0.102350	-0.090154	0.223808	0.027939	0.012990	0.000428	0.172909	0.084455	0.153994	0.429485	0.105312	0.115172	0.459280	0.025364	0.074629	0.551353	0.213105	-0.120492	0.474222	0.227912	-0.127397	
449	4.4900	0.003180	0.100656	0.163466	0.022445	-0.116205	0.226619	0.005349	0.000761	-0.004862	0.019820	-0.141473	-0.070895	0.180029	0.050824	0.180758	0.129010	0.093059	0.110583	0.080314	0.025908	0.212985	0.102516	-0.090045	0.223928	0.027985	0.012927	0.000494	0.173063	0.084559	0.153683	0.429290	0.106477	0.112685	0.459385	0.025695	0.074167	0.549806	0.208358	-0.126191	0.472469	0.222279	-0.133476	
450	4.5000	0.003290	0.100722	0.163506	0.022531	-0.116122	0.226786	0.005471	0.000716	-0.004749	0.019881	-0.141553	-0.070781	0.180244	0.051070	0.180655	0.129157	0.092964	0.110435	0.080472	0.026023	0.213018	0.102662	-0.089944	0.224056	0.028031	0.012862	0.000554	0.173227	0.084666	0.153381	0.429110	0.107503	0.110169	0.459473	0.025901	0.073738	0.548286	0.203441	-0.131708	0.470774	0.216346	-0.139395	
451	4.5100	0.003405	0.100789	0.163556	0.022606	-0.116047	0.226957	0.005536	0.000666	-0.004654	0.019937	-0.141634	-0.070674	0.180468	0.051285	0.180553	0.129307	0.092891	0.110322	0.080633	0.026137	0.213067	0.102785	-0.089849	0.224195	0.028073	0.012798	0.000614	0.173402	0.084781	0.153090	0.428925	0.108382	0.107632	0.459538	0.025994	0.073303	0.546773	0.198350	-0.137055	0.469123	0.210094	-0.145149	
452	4.5200	0.003527	0.100849	0.163623	0.022671	-0.115983	0.227125	0.005543	0.000608	-0.004579	0.019987	-0.141711	-0.070576	0.180701	0.051480	0.180442	0.129460	0.092840	0.110253	0.080786	0.026247	0.213132	0.102885	-0.089764	0.224344	0.028104	0.012741	0.000679	0.173596	0.084896	0.152785	0.428713	0.109128	0.105084	0.459576	0.026022	0.072826	0.545244	0.193023	-0.142269	0.467486	0.203507	-0.150742	
453	4.5300	0.003646	0.100890	0.163693	0.022729	-0.115928	0.227286	0.005505	0.000537	-0.004522	0.020029	-0.141780	-0.070487	0.180939	0.051663	0.180309	0.129601	0.092764	0.110170	0.080922	0.026354	0.213213	0.102962	-0.089690	0.224502	0.028121	0.012695	0.000748	0.173815	0.085002	0.152435	0.428459	0.109761	0.102528	0.459579	0.026024	0.072315	0.543689	0.187343	-0.147396	0.465838	0.196588	-0.156168	
454	4.5400	0.003749	0.100908	0.163759	0.022784	-0.115880	0.227438	0.005434	0.000452	-0.004478	0.020060	-0.141838	-0.070408	0.181169	0.051839	0.180154	0.129698	0.092622	0.110009	0.081038	0.026462	0.213306	0.103024	-0.089629	0.224669	0.028127	0.012661	0.000822	0.174042	0.085100	0.152044	0.428166	0.110289	0.099961	0.459552	0.026003	0.071825	0.542105	0.181175	-0.152458	0.464168	0.189378	-0.161400	
